<?xml version="1.0" encoding="utf-8"?>
<!-- Generator: Adobe Illustrator 18.1.1, SVG Export Plug-In . SVG Version: 6.00 Build 0)  -->
<svg version="1.1" id="Layer_1" xmlns="http://www.w3.org/2000/svg" xmlns:xlink="http://www.w3.org/1999/xlink" x="0px" y="0px"
	 viewBox="0 0 1000 1000" enable-background="new 0 0 1000 1000" xml:space="preserve">
<rect y="-0.5" fill="#E0DFE5" width="1000" height="1000"/>
<g>
	<polyline fill="#FFFFFF" points="414.5,587.7 639.7,488.6 414.5,388.8 414.5,587.7 	"/>
	<polyline fill="#E8E7E8" points="612,500.8 612,500.8 639.7,488.6 612,500.8 	"/>
	<g>
		<defs>
			<rect id="SVGID_1_" x="83.7" y="247" width="833.7" height="497.8"/>
		</defs>
		<clipPath id="SVGID_2_">
			<use xlink:href="#SVGID_1_"  overflow="visible"/>
		</clipPath>
		<polyline clip-path="url(#SVGID_2_)" fill="#E8E7E8" points="612,500.8 414.5,388.8 639.7,488.6 612,500.8 		"/>
		<path clip-path="url(#SVGID_2_)" fill="#302E2A" d="M414.5,587.7l0-198.9l225.3,99.8L414.5,587.7L414.5,587.7z M909.1,354.4
			c0,0-8.1-48.8-33.1-70.3c-31.7-28.2-67.2-28.3-83.5-30C675.8,247,500.8,247,500.8,247h-0.4c0,0-175,0-291.7,7.2
			c-16.3,1.7-51.8,1.8-83.5,30c-25,21.5-33.1,70.3-33.1,70.3s-8.3,57.3-8.3,114.6v53.7c0,57.3,8.3,114.6,8.3,114.6
			s8.1,48.8,33.1,70.3c31.7,28.2,73.4,27.3,91.9,30.3c66.7,5.4,283.5,7.1,283.5,7.1s175.2-0.2,291.8-7.4c16.3-1.7,51.8-1.8,83.5-30
			c25-21.5,33.1-70.3,33.1-70.3s8.3-57.3,8.3-114.6v-53.7C917.4,411.7,909.1,354.4,909.1,354.4L909.1,354.4z"/>
	</g>
</g>
</svg>
